<?xml version="1.0" encoding="utf-8"?>
<svg width="42px" height="42px" viewbox="0 0 42 42" version="1.1" xmlns:xlink="http://www.w3.org/1999/xlink" xmlns="http://www.w3.org/2000/svg">
  <g id="picto_slider_gauche">
    <g id="picto_slider_gauche" transform="matrix(-1 0 0 1 42 0)">
      <path d="M21 42C32.598 42 42 32.598 42 21C42 9.40202 32.598 0 21 0C9.40202 0 0 9.40202 0 21C0 32.598 9.40202 42 21 42Z" id="Oval" fill="#000000" fill-rule="evenodd" stroke="#FFFFFF" stroke-width="1" />
      <path d="M0.243215 10.0436C-0.0810717 9.72034 -0.0810717 9.19633 0.243215 8.8731L3.99275 5.14272L0.243215 1.41234C-0.0810717 1.08911 -0.0810717 0.565101 0.243215 0.242422C0.568056 -0.0808075 1.09468 -0.0808075 1.41952 0.242422L5.75665 4.55804C5.91241 4.71303 6 4.92319 6 5.14272C6 5.36225 5.91241 5.57296 5.75665 5.72795L1.41952 10.0436C1.2571 10.2052 1.04423 10.2857 0.831366 10.2857C0.618501 10.2857 0.405636 10.2052 0.243215 10.0436Z" transform="matrix(1 -1.7484555E-07 1.7484555E-07 1 19.142857 15.857143)" id="Fill-1" fill="#FFFFFF" fill-rule="evenodd" stroke="none" />
    </g>
  </g>
</svg>