<?xml version="1.0" encoding="utf-8"?>
<svg width="14px" height="13px" viewbox="0 0 14 13" version="1.1" xmlns:xlink="http://www.w3.org/1999/xlink" xmlns="http://www.w3.org/2000/svg">
  <g id="Picto_Deconnexion" transform="matrix(-1 8.742278E-08 -8.742278E-08 -1 14 13)">
    <path d="M9.23946 2.67034L2.54891 2.67034L3.66951 1.40752C3.95977 1.07678 3.95242 0.551611 3.65114 0.2329C3.34803 -0.0858109 2.86856 -0.0757885 2.57463 0.252945L0.21218 2.9229C0.177276 2.96299 0.160742 3.00909 0.135023 3.05319C0.107468 3.09729 0.0762377 3.13538 0.0578672 3.18348C-0.0192891 3.38594 -0.0192891 3.61244 0.0578672 3.81489C0.0762377 3.865 0.107468 3.90309 0.135023 3.94719C0.160742 3.98928 0.177276 4.03739 0.21218 4.07748L2.57463 6.74744C2.72527 6.91381 2.92367 7 3.12207 7C3.31129 7 3.50234 6.92183 3.65114 6.76748C3.95242 6.44877 3.95977 5.9236 3.66951 5.59286L2.54891 4.33004L9.23946 4.33004C9.66014 4.33004 10 3.95721 10 3.50019C10 3.04317 9.66014 2.67034 9.23946 2.67034" transform="translate(0 3)" id="Fill-1" fill="#818181" fill-rule="evenodd" stroke="none" />
    <path d="M4.36291 13C2.47434 13 0.737724 11.7379 0.0447486 9.86166C-0.0905069 9.49961 0.0915036 9.09526 0.447176 8.95992C0.809527 8.82626 1.2036 9.00729 1.33719 9.36934C1.83146 10.7042 3.04709 11.5992 4.36291 11.5992C6.15796 11.5992 7.61906 10.0156 7.61906 8.06663L7.61906 4.93168C7.61906 2.98438 6.15796 1.40083 4.36291 1.40083C3.09551 1.40083 1.93499 2.21291 1.40231 3.46994C1.25203 3.82522 0.846263 3.98933 0.493931 3.83706C0.143268 3.6848 -0.0187046 3.27199 0.131579 2.9184C0.882999 1.14537 2.5428 0 4.36291 0C6.9194 0 9 2.21291 9 4.93168L9 8.06663C9 10.7871 6.9194 13 4.36291 13" transform="translate(5 0)" id="Fill-4" fill="#818181" fill-rule="evenodd" stroke="none" />
  </g>
</svg>