<?xml version="1.0" encoding="utf-8"?>
<svg width="53px" height="53px" viewbox="0 0 53 53" version="1.1" xmlns:xlink="http://www.w3.org/1999/xlink" xmlns="http://www.w3.org/2000/svg">
  <g id="Logo_twitter">
    <g id="Twitter_Logo_Blue">
      <path d="M0 0L53 0L53 53L0 53L0 0Z" id="Rectangle" fill="none" fill-rule="evenodd" stroke="none" />
      <path d="M10.4172 26.5C22.9172 26.5 29.7542 16.3039 29.7542 7.46182C29.7542 7.17222 29.7542 6.88392 29.7343 6.59692C31.0644 5.64972 32.2125 4.47692 33.125 3.13342C31.8846 3.67454 30.5688 4.0294 29.2215 4.18617C30.6403 3.34995 31.7021 2.03471 32.2094 0.485241C30.8754 1.26463 29.4159 1.81391 27.8939 2.10937C25.7873 -0.0960606 22.4398 -0.635848 19.7287 0.792691C17.0175 2.22123 15.6168 5.26282 16.3121 8.21192C10.8476 7.94221 5.75643 5.4011 2.3055 1.22099C0.501675 4.27833 1.42303 8.18956 4.4096 10.153C3.32806 10.1215 2.2701 9.83424 1.325 9.31555C1.325 9.34294 1.325 9.37164 1.325 9.40034C1.32589 12.5854 3.60632 15.3288 6.77738 15.9595C5.77683 16.2281 4.72704 16.2674 3.70868 16.0743C4.59901 18.8 7.15046 20.6672 10.0581 20.721C7.65152 22.5831 4.67865 23.594 1.61783 23.5909C1.0771 23.5899 0.536895 23.5577 0 23.4944C3.10797 25.458 6.72426 26.4996 10.4172 26.4948" transform="translate(9.464286 13.25)" id="Path" fill="#000000" fill-rule="evenodd" stroke="none" />
    </g>
  </g>
</svg>