<?xml version="1.0" encoding="utf-8"?>
<svg width="30px" height="31px" viewbox="0 0 30 31" version="1.1" xmlns:xlink="http://www.w3.org/1999/xlink" xmlns="http://www.w3.org/2000/svg">
  <defs>
    <path d="M0 0L29.9905 0L29.9905 30.3542L0 30.3542L0 0Z" transform="translate(0 0.009580175)" id="path_1" />
    <clipPath id="mask_1">
      <use xlink:href="#path_1" />
    </clipPath>
  </defs>
  <g id="Logo_insta">
    <g id="Logo_insta">
      <path d="M0 0L29.9905 0L29.9905 30.3542L0 30.3542L0 0Z" transform="translate(0 0.009580175)" id="Clip-2" fill="none" fill-rule="evenodd" stroke="none" />
      <g clip-path="url(#mask_1)">
        <path d="M14.9953 0C10.9228 0 10.4121 0.0174733 8.81274 0.0913431C7.21667 0.165032 6.12661 0.421648 5.1728 0.796902C4.18673 1.18475 3.35048 1.70376 2.51679 2.5476C1.68315 3.3915 1.17042 4.23799 0.787262 5.23614C0.416548 6.20163 0.163036 7.30503 0.0902381 8.92065C0.0172619 10.5396 0 11.0565 0 15.1789C0 19.3012 0.0172619 19.8181 0.0902381 21.4371C0.163036 23.0527 0.416548 24.1561 0.787262 25.1216C1.17042 26.1198 1.68315 26.9663 2.51679 27.8102C3.35048 28.654 4.18673 29.173 5.1728 29.5609C6.12661 29.9361 7.21667 30.1927 8.81274 30.2664C10.4121 30.3403 10.9228 30.3578 14.9953 30.3578C19.0677 30.3578 19.5784 30.3403 21.1778 30.2664C22.7739 30.1927 23.8639 29.9361 24.8177 29.5609C25.8038 29.173 26.6401 28.654 27.4737 27.8102C28.3074 26.9663 28.8201 26.1198 29.2033 25.1216C29.574 24.1561 29.8275 23.0527 29.9003 21.4371C29.9733 19.8181 29.9905 19.3012 29.9905 15.1789C29.9905 11.0565 29.9733 10.5396 29.9003 8.92065C29.8275 7.30503 29.574 6.20163 29.2033 5.23614C28.8201 4.23799 28.3074 3.3915 27.4737 2.5476C26.6401 1.70376 25.8038 1.18475 24.8177 0.796902C23.8639 0.421648 22.7739 0.165032 21.1778 0.0913431C19.5784 0.0174733 19.0677 0 14.9953 0ZM14.9953 2.73493C18.9992 2.73493 19.4735 2.75041 21.0546 2.82344C22.5167 2.89092 23.3107 3.1382 23.839 3.34607C24.539 3.62143 25.0385 3.95035 25.5632 4.48153C26.088 5.01266 26.4129 5.5183 26.6849 6.22681C26.8903 6.76168 27.1346 7.56539 27.2013 9.04531C27.2734 10.6459 27.2887 11.126 27.2887 15.1789C27.2887 19.2318 27.2734 19.7119 27.2013 21.3125C27.1346 22.7924 26.8903 23.5961 26.6849 24.131C26.4129 24.8395 26.088 25.3451 25.5632 25.8762C25.0385 26.4074 24.539 26.7363 23.839 27.0117C23.3107 27.2196 22.5167 27.4668 21.0546 27.5343C19.4737 27.6074 18.9995 27.6228 14.9953 27.6228C10.9911 27.6228 10.5169 27.6074 8.93589 27.5343C7.47387 27.4668 6.67988 27.2196 6.15149 27.0117C5.45155 26.7363 4.95202 26.4074 4.42732 25.8762C3.90262 25.3451 3.57762 24.8395 3.3056 24.131C3.10024 23.5961 2.85595 22.7924 2.78929 21.3125C2.71714 19.7119 2.70185 19.2318 2.70185 15.1789C2.70185 11.126 2.71714 10.6459 2.78929 9.04531C2.85595 7.56539 3.10024 6.76168 3.3056 6.22681C3.57762 5.5183 3.90256 5.01266 4.42732 4.48153C4.95202 3.95035 5.45155 3.62143 6.15149 3.34607C6.67988 3.1382 7.47387 2.89092 8.93589 2.82344C10.5171 2.75041 10.9914 2.73493 14.9953 2.73493L14.9953 2.73493Z" transform="translate(0 0.009580175)" id="Fill-1" fill="#0A0B09" fill-rule="evenodd" stroke="none" />
        <path d="M7.7003 12.8542C4.9397 12.8542 2.70185 10.5889 2.70185 7.79459C2.70185 5.00019 4.9397 2.73493 7.7003 2.73493C10.4608 2.73493 12.6987 5.00019 12.6987 7.79459C12.6987 10.5889 10.4608 12.8542 7.7003 12.8542ZM7.7003 0C3.4475 0 0 3.48971 0 7.79459C0 12.0994 3.4475 15.5891 7.7003 15.5891C11.953 15.5891 15.4005 12.0994 15.4005 7.79459C15.4005 3.48971 11.953 0 7.7003 0L7.7003 0Z" transform="translate(7.295 7.3939066)" id="Fill-4" fill="#0A0B09" fill-rule="evenodd" stroke="none" />
        <path d="M3.59887 1.8215C3.59887 2.82748 2.79321 3.64294 1.7994 3.64294C0.805655 3.64294 0 2.82748 0 1.8215C0 0.81552 0.805655 0 1.7994 0C2.79321 0 3.59887 0.81552 3.59887 1.8215" transform="translate(21.200357 5.2644567)" id="Fill-5" fill="#0A0B09" fill-rule="evenodd" stroke="none" />
      </g>
    </g>
  </g>
</svg>